# xmcd
#
# Track frame offsets:
#	150
#	11927
#	27962
#	44236
#	59836
#	80610
#	99187
#	114073
#	129448
#	140397
#
# Disc length: 2109 seconds
#
# Revision: 0
# Processed by: cddbd v1.5.1PL0 Copyright (c) Steve Scherf et al.
# Submitted via: dBpowerAMP V4.0
#
DISCID=86083b0a
DTITLE=Wendell Crowley - I Know That Hurt By Heart
DYEAR=2004
DGENRE=Country
TTITLE0=I'm Going With My Heart This Time
TTITLE1=This One's Gonna Leave A Mark
TTITLE2=She Used To Leave The Light On
TTITLE3=I Know That Hurt By Heart
TTITLE4=Someone Else's Gain
TTITLE5=You Ain't Heard Nothing Yet
TTITLE6=Ole Jack Daniels
TTITLE7=Love Of A LIfetime
TTITLE8=She's Out Of My Hands
TTITLE9=How Do I Get To You From Here
EXTD=Wendell Crowley
EXTT0=
EXTT1=
EXTT2=
EXTT3=
EXTT4=
EXTT5=
EXTT6=
EXTT7=
EXTT8=
EXTT9=
PLAYORDER=
